<svg xmlns="http://www.w3.org/2000/svg" viewBox="0 0 542.24 130.03"><defs><style>.cls-1,.cls-2{fill:#fff;}.cls-2{isolation:isolate;font-size:117.94px;font-family:Dosis-Regular, Dosis;}</style></defs><title>perdiem-white</title><g id="Layer_2" data-name="Layer 2"><g id="Layer_1-2" data-name="Layer 1"><g id="Layer_2-2" data-name="Layer 2"><g id="Layer_1-2-2" data-name="Layer 1-2"><path class="cls-1" d="M93,58.63C93,69.43,93,80.23,93,91a7.53,7.53,0,0,1-2.2,5.64,61,61,0,0,1-19,13.8,59,59,0,0,1-13.92,4.36,57.3,57.3,0,0,1-13.42,1,79.26,79.26,0,0,1-7.9-.83,62.36,62.36,0,0,1-9.7-2.32A61.15,61.15,0,0,1,19,109.38a68.93,68.93,0,0,1-6.85-4c-1.25-.8-2.38-1.79-3.55-2.71a63.12,63.12,0,0,1-7.49-7.28,4.2,4.2,0,0,1-1.11-3V24.72c0-2.56,1.49-3.93,4.25-4s5.65-.11,8.46,0a4.75,4.75,0,0,0,3.72-1.37c2.6-2.43,5.3-4.75,8-7.08,3.36-2.92,6.64-5.94,10.1-8.75a4.44,4.44,0,0,1,5.24.07q3,2.57,6,5.22c.49.44.72.55,1.29,0,2-1.81,4.12-3.55,6.22-5.27a4.27,4.27,0,0,1,5.43.27c3,2.65,6,5.24,9,7.86C70.48,14.1,73.29,16.49,76,19a5.29,5.29,0,0,0,4.18,1.7c2.78-.16,5.57,0,8.36,0a5.27,5.27,0,0,1,.87,0C92.14,21.15,93,22.23,93,25Q93,41.9,93,58.63ZM46.34,45h-38a2,2,0,0,0-2.08,1.92q0,.08,0,.15V90.17a2.61,2.61,0,0,0,.57,2,52,52,0,0,0,9.28,8c14.75,9.5,30.56,11.53,47.26,6.39A50.42,50.42,0,0,0,85.18,92.88a4.07,4.07,0,0,0,1.24-3.09q0-21.06,0-42.11c0-2-.62-2.62-2.6-2.62Zm0-7.2H83.85c1.91,0,2.54-.64,2.55-2.58s0-3.63,0-5.45c0-2.07-.6-2.68-2.64-2.68h-75c-1.91,0-2.55.64-2.55,2.58v5.54c0,1.84.64,2.58,2.55,2.58ZM22.78,20.33c-.42,1-.3,1.18.74,1.18H52.39s1-.11.26-.76l-1.2-1.14L40.81,10.25a4.77,4.77,0,0,0-6.13-.11m25,11.36h9.58a1.1,1.1,0,0,0,.92-1.38l-.08-.3a3.8,3.8,0,0,0-.58-.65l-11-10.1a3.27,3.27,0,0,0-4.62-.15L53.8,9c-1.12,1-2.18,2-3.32,3-.53.45-.53.71,0,1.18"/><text class="cls-2" transform="translate(127.33 102.08)">PERDIEM</text></g></g></g></g></svg>